<svg width="37" height="37" viewBox="0 0 37 37" fill="none" xmlns="http://www.w3.org/2000/svg">
<g clip-path="url(#clip0)">
<path d="M4.23958 0C1.89779 0 0 1.89779 0 4.23958V17.7292H17.7292V0H4.23958ZM11.1771 10.4063H9.63542V11.9479C9.63542 12.5862 9.11742 13.1042 8.47917 13.1042C7.84092 13.1042 7.32292 12.5862 7.32292 11.9479V10.4063H5.78125C5.143 10.4063 4.625 9.88825 4.625 9.25C4.625 8.61175 5.143 8.09375 5.78125 8.09375H7.32292V6.55208C7.32292 5.91383 7.84092 5.39583 8.47917 5.39583C9.11742 5.39583 9.63542 5.91383 9.63542 6.55208V8.09375H11.1771C11.8153 8.09375 12.3333 8.61175 12.3333 9.25C12.3333 9.88825 11.8153 10.4063 11.1771 10.4063Z" fill="url(#paint0_linear)"/>
<path d="M0 19.2708V32.7604C0 35.1022 1.89779 37 4.23958 37H17.7292V19.2708H0ZM11.6088 29.2454C12.0605 29.6971 12.0605 30.4294 11.6088 30.8811C11.3837 31.1062 11.0877 31.2188 10.7917 31.2188C10.4957 31.2188 10.1997 31.1062 9.97458 30.8796L8.86458 29.7696L7.75458 30.8796C7.5295 31.1047 7.2335 31.2188 6.9375 31.2188C6.6415 31.2188 6.3455 31.1062 6.12042 30.8796C5.66871 30.4279 5.66871 29.6956 6.12042 29.2439L7.23042 28.1339L6.12042 27.0239C5.66871 26.5722 5.66871 25.8399 6.12042 25.3882C6.57213 24.9365 7.30442 24.9365 7.75613 25.3882L8.86613 26.4982L9.97613 25.3882C10.4278 24.9365 11.1601 24.9365 11.6118 25.3882C12.0635 25.8399 12.0635 26.5722 11.6118 27.0239L10.5018 28.1339L11.6088 29.2454Z" fill="url(#paint1_linear)"/>
<path d="M32.7604 0H19.2708V17.7292H37V4.23958C37 1.89779 35.1022 0 32.7604 0ZM31.9896 10.0208H25.0521C24.4138 10.0208 23.8958 9.50283 23.8958 8.86458C23.8958 8.22633 24.4138 7.70833 25.0521 7.70833H31.9896C32.6278 7.70833 33.1458 8.22633 33.1458 8.86458C33.1458 9.50283 32.6278 10.0208 31.9896 10.0208Z" fill="url(#paint2_linear)"/>
<path d="M19.2708 19.2708V37H32.7604C35.1022 37 37 35.1022 37 32.7604V19.2708H19.2708ZM31.6042 31.6042H24.6667C24.0284 31.6042 23.5104 31.0862 23.5104 30.4479C23.5104 29.8097 24.0284 29.2917 24.6667 29.2917H31.6042C32.2424 29.2917 32.7604 29.8097 32.7604 30.4479C32.7604 31.0862 32.2424 31.6042 31.6042 31.6042ZM31.6042 26.9792H24.6667C24.0284 26.9792 23.5104 26.4612 23.5104 25.8229C23.5104 25.1847 24.0284 24.6667 24.6667 24.6667H31.6042C32.2424 24.6667 32.7604 25.1847 32.7604 25.8229C32.7604 26.4612 32.2424 26.9792 31.6042 26.9792Z" fill="url(#paint3_linear)"/>
</g>
<defs>
<linearGradient id="paint0_linear" x1="8.86458" y1="0" x2="8.86458" y2="17.7292" gradientUnits="userSpaceOnUse">
<stop stop-color="#FFC700"/>
<stop offset="1" stop-color="#FF9900"/>
</linearGradient>
<linearGradient id="paint1_linear" x1="8.86458" y1="19.2708" x2="8.86458" y2="37" gradientUnits="userSpaceOnUse">
<stop stop-color="#FFC700"/>
<stop offset="1" stop-color="#FF9900"/>
</linearGradient>
<linearGradient id="paint2_linear" x1="28.1354" y1="0" x2="28.1354" y2="17.7292" gradientUnits="userSpaceOnUse">
<stop stop-color="#FFC700"/>
<stop offset="1" stop-color="#FF9900"/>
</linearGradient>
<linearGradient id="paint3_linear" x1="28.1354" y1="19.2708" x2="28.1354" y2="37" gradientUnits="userSpaceOnUse">
<stop stop-color="#FFC700"/>
<stop offset="1" stop-color="#FF9900"/>
</linearGradient>
<clipPath id="clip0">
<rect width="37" height="37" fill="white"/>
</clipPath>
</defs>
</svg>
